# xmcd CD database file
#
# Track frame offsets:
#	150
#	11389
#	22758
#	34185
#	46201
#	58706
#	70542
#	85715
#	98244
#	109100
#	119970
#	134619
#	147494
#	161717
#	174868
#	183655
#	196698
#	207713
#	219154
#	230861
#
# Disc length: 3200 seconds
#
# Revision: 0
# Processed by: cddbd v1.5.2PL0 Copyright (c) Steve Scherf et al.
# Submitted via: CDex 1.95
#
DISCID=1d0c7e14
DTITLE=Dick Curless - 20 Great Truck Hits
DYEAR=1983
DGENRE=Country
TTITLE0=Big Wheel Cannonball
TTITLE1=Drag 'Em Off The Interstate, Sock It To 'Em
TTITLE2=Hard, Hard Traveling Man
TTITLE3=Goin' Down The Road Feeling Bad
TTITLE4=Truck Stop
TTITLE5=Juke Box Man
TTITLE6=Drop Some Silver In The Juke Box
TTITLE7=Leaving It All Behind
TTITLE8=Coastline Charlie
TTITLE9=Six Days On The Road
TTITLE10=Tombstone Every Mile
TTITLE11=Golden Girl
TTITLE12=Old Rambin' Alabama Me
TTITLE13=Woman, Don't Try To Sing My Song
TTITLE14=Hot Springs
TTITLE15=Carter Boys
TTITLE16=	Born On Country Music (Raised On Dixieland)
TTITLE17=Homing Pigeon
TTITLE18=Check Inspector (That's Where My Money Goes)
TTITLE19=A Pinch O'Powder
EXTD=YEAR: 1983
EXTT0=
EXTT1=
EXTT2=
EXTT3=
EXTT4=
EXTT5=
EXTT6=
EXTT7=
EXTT8=
EXTT9=
EXTT10=
EXTT11=
EXTT12=
EXTT13=
EXTT14=
EXTT15=
EXTT16=
EXTT17=
EXTT18=
EXTT19=
PLAYORDER=
